<svg width="20" height="14" viewBox="0 0 20 14" fill="none" xmlns="http://www.w3.org/2000/svg">
<path
d="M13.303 6.99994C12.7749 6.99994 12.278 6.71869 12.0092 6.26869L9.99986 2.93743L7.99361 6.26869C7.72173 6.72181 7.22486 7.00306 6.69673 7.00306C6.55611 7.00306 6.41548 6.98431 6.28111 6.94369L1.99986 5.71868V11.2812C1.99986 11.7406 2.31236 12.1406 2.75611 12.2499L9.51236 13.9406C9.83111 14.0187 10.1655 14.0187 10.4811 13.9406L17.2436 12.2499C17.6874 12.1374 17.9999 11.7374 17.9999 11.2812V5.71868L13.7186 6.94056C13.5842 6.98119 13.4436 6.99994 13.303 6.99994ZM19.9467 3.49369L18.3374 0.281184C18.2405 0.0874344 18.0311 -0.0250656 17.8155 0.00305938L9.99986 0.999935L12.8655 5.75306C12.9842 5.94993 13.2217 6.04368 13.4436 5.98118L19.628 4.21556C19.9374 4.12493 20.0874 3.78118 19.9467 3.49369ZM1.66236 0.281184L0.0529828 3.49369C-0.0907672 3.78118 0.0623578 4.12493 0.368608 4.21243L6.55298 5.97806C6.77486 6.04056 7.01236 5.94681 7.13111 5.74993L9.99986 0.999935L2.18111 0.00305938C1.96548 -0.0219406 1.75923 0.0874344 1.66236 0.281184Z"
fill="#d3d6dc"/>
</svg>